<svg xmlns="http://www.w3.org/2000/svg" width="55" height="55" viewBox="0 0 66 52" fill="none" class="wd"><path d="M50.6271 3.54553C50.6271 5.79995 50.911 46.0888 50.911 48.4546C50.911 51.6991 49.0688 50.9898 48.7291 50.8181L32.7658 44.1057C32.7658 46.1651 31.0676 47.8813 28.8599 47.8813H16.6326C14.4249 47.8813 12.7267 46.1651 12.7267 44.1057V36.2113L9.16039 34.8384L2.02783 31.9209C1.51836 31.7493 1.17871 31.2344 1.17871 30.7195V21.4522C1.17871 20.9374 1.51836 20.4225 2.02783 20.2509L48.7291 0.839434C50.9517 7.40748e-05 50.6271 3.04856 50.6271 3.54553ZM30.5581 44.6205H30.3883V43.5908L14.4249 37.0694V43.9341C14.4249 45.1354 15.274 46.3367 16.8024 46.3367H28.69C29.709 46.3367 30.5581 45.6502 30.5581 44.6205ZM11.0284 33.637L48.7291 48.4546V3.2608L2.70712 22.1387V30.3763L9.33021 32.9506V26.0859C9.33021 25.571 9.66986 25.2278 10.1793 25.2278C10.6888 25.2278 11.0284 25.571 11.0284 26.0859V33.637ZM45.9644 40.1819C45.9644 40.8343 45.4376 41.3637 44.7859 41.3637H42.4287C41.777 41.3637 41.2501 40.8343 41.2501 40.1819C41.2501 39.5295 41.777 39.0001 42.4287 39.0001H44.7859C45.4376 39.0001 45.9644 39.5295 45.9644 40.1819ZM45.9644 35.4546C45.9644 36.107 45.4376 36.6364 44.7859 36.6364H42.4287C41.777 36.6364 41.2501 36.107 41.2501 35.4546C41.2501 34.8023 41.777 34.2728 42.4287 34.2728H44.7859C45.4376 34.2728 45.9644 34.8023 45.9644 35.4546ZM45.9644 30.7273C45.9644 31.3797 45.4376 31.9092 44.7859 31.9092H42.4287C41.777 31.9092 41.2501 31.3797 41.2501 30.7273C41.2501 30.075 41.777 29.5455 42.4287 29.5455H44.7859C45.4376 29.5455 45.9644 30.075 45.9644 30.7273ZM45.9644 26.0001C45.9644 26.6524 45.4376 27.1819 44.7859 27.1819H42.4287C41.777 27.1819 41.2501 26.6524 41.2501 26.0001C41.2501 25.3477 41.777 24.8183 42.4287 24.8183H44.7859C45.4376 24.8183 45.9644 25.3477 45.9644 26.0001ZM65.2928 27.1819C65.2928 27.8343 64.7659 28.3637 64.1142 28.3637H55.393C54.7412 28.3637 54.2144 27.8343 54.2144 27.1819C54.2144 26.5295 54.7412 26.0001 55.393 26.0001H64.1142C64.7659 26.0001 65.2928 26.5295 65.2928 27.1819ZM54.7677 37.6799C55.0732 37.1039 55.7862 36.8844 56.3617 37.1913L64.062 41.2969C64.6375 41.6037 64.8547 42.3192 64.5493 42.8952C64.2439 43.4712 63.5309 43.6907 62.9554 43.3839L55.255 39.2782C54.6796 38.9714 54.4623 38.2559 54.7677 37.6799ZM54.7677 15.7134C54.4623 15.1374 54.6796 14.4219 55.255 14.1151L62.9554 10.0095C63.5309 9.70263 64.2439 9.9221 64.5493 10.4981C64.8547 11.0741 64.6375 11.7896 64.062 12.0964L56.3617 16.202C55.7862 16.5089 55.0732 16.2894 54.7677 15.7134ZM45.9644 20.091C45.9644 20.7433 45.4376 21.2728 44.7859 21.2728H42.4287C41.777 21.2728 41.2501 20.7433 41.2501 20.091C41.2501 19.4386 41.777 18.9092 42.4287 18.9092H44.7859C45.4376 18.9092 45.9644 19.4386 45.9644 20.091ZM45.9644 15.3637C45.9644 16.0161 45.4376 16.5455 44.7859 16.5455H42.4287C41.777 16.5455 41.2501 16.0161 41.2501 15.3637C41.2501 14.7113 41.777 14.1819 42.4287 14.1819H44.7859C45.4376 14.1819 45.9644 14.7113 45.9644 15.3637ZM45.9644 10.6364C45.9644 11.2888 45.4376 11.8183 44.7859 11.8183H42.4287C41.777 11.8183 41.2501 11.2888 41.2501 10.6364C41.2501 9.98407 41.777 9.45462 42.4287 9.45462H44.7859C45.4376 9.45462 45.9644 9.98407 45.9644 10.6364Z" fill="#2F3033" stroke="#2F3033" stroke-width="0.1967"></path></svg>