<svg xmlns="http://www.w3.org/2000/svg" width="58" height="52" viewBox="0 0 78 72" fill="none" class="wd"><path fill-rule="evenodd" clip-rule="evenodd" d="M34.0376 0.972744C34.4802 0.972744 34.9227 0.972744 35.3652 0.972744C35.4354 0.997181 35.506 0.997181 35.5761 0.972744C35.5963 0.972744 35.616 0.972744 35.6362 0.972744C35.8795 1.00409 36.1244 0.994524 36.3688 1.01418C37.0727 1.07156 37.7601 1.21818 38.4401 1.40146C40.0184 1.82593 41.4767 2.5139 42.8282 3.42871C43.4949 3.88027 44.1399 4.36212 44.6982 4.94649C45.2088 5.48146 45.6678 6.06052 46.1262 6.64065C46.7558 7.43752 47.3343 8.27318 47.9819 9.05624C48.0265 9.11043 48.0738 9.16249 48.1243 9.2119C48.1885 9.27565 48.2613 9.30009 48.3554 9.29371C49.5108 9.22146 50.6344 9.36384 51.7049 9.82337C53.2514 10.4869 54.4084 11.5728 55.1904 13.0613C55.3429 13.3509 55.481 13.6473 55.5926 13.9549C55.6669 14.1594 55.8024 14.2667 56.0224 14.2997C57.0105 14.4479 57.9715 14.7008 58.8932 15.0923C59.8771 15.5099 60.7733 16.0682 61.5867 16.7615C62.1238 17.2189 62.6215 17.7162 63.1055 18.2262C64.0564 19.2265 64.7593 20.3836 65.2353 21.6803C65.587 22.6398 65.8096 23.629 65.9031 24.6437C65.9652 25.3231 65.9461 26.0074 65.9339 26.6906C65.9185 27.5182 65.7639 28.3183 65.5365 29.1077C65.1205 30.5522 64.4129 31.8442 63.4864 33.0241C62.5142 34.2614 61.3566 35.2809 59.9759 36.0379C59.0999 36.5192 58.1723 36.8773 57.207 37.1365C56.4914 37.3283 55.7663 37.4696 55.03 37.5445C54.6363 37.5838 54.2389 37.5913 53.8421 37.5838C53.773 37.5838 53.7045 37.5838 53.636 37.5838C53.5239 37.5838 53.4123 37.5838 53.3008 37.5838C48.0876 37.5838 42.875 37.5838 37.6618 37.5838C36.3337 37.5838 35.0056 37.5838 33.6769 37.5838C28.4988 37.5838 23.3207 37.5838 18.1426 37.5838C18.0614 37.5913 17.9774 37.5674 17.8972 37.5982C17.8669 37.5982 17.8372 37.5982 17.8069 37.5982C17.6146 37.5679 17.4196 37.5785 17.2257 37.5567C16.5489 37.4829 15.9055 37.2901 15.2962 36.9963C13.9792 36.3593 12.9566 35.3972 12.2256 34.1312C11.8378 33.4592 11.5875 32.7357 11.4786 31.9648C11.4558 31.8017 11.4685 31.6365 11.4409 31.4739C11.4409 31.0213 11.4409 30.5687 11.4409 30.1161C11.4696 29.9636 11.4595 29.8079 11.4786 29.6549C11.5493 29.0801 11.7374 28.5404 11.9716 28.0155C12.3031 27.2728 12.7674 26.6178 13.3322 26.0366C13.7359 25.6217 14.1907 25.2636 14.6863 24.9608C14.8409 24.8662 14.843 24.8636 14.7389 24.7101C14.2008 23.9142 13.7981 23.0605 13.6259 22.1085C13.3476 20.5636 13.6068 19.108 14.3734 17.7438C14.9849 16.6552 15.8487 15.8164 16.951 15.231C17.6592 14.8543 18.4205 14.6344 19.2158 14.5313C19.3852 14.509 19.5568 14.5069 19.7252 14.4771C19.9037 14.4458 19.942 14.4097 19.9632 14.2242C20.0169 13.7498 20.0705 13.276 20.1593 12.8058C20.3712 11.6886 20.7187 10.6149 21.1894 9.58165C21.7498 8.3534 22.4622 7.22078 23.3303 6.1859C24.1723 5.18237 25.1376 4.31537 26.2065 3.56152C27.2222 2.84487 28.3081 2.26049 29.4747 1.82859C30.559 1.42696 31.6752 1.1523 32.8243 1.02321C33.0878 0.993992 33.3544 0.98443 33.6206 0.986024C33.6594 0.986024 33.7008 0.999305 33.7369 0.97168C33.7672 0.97168 33.7975 0.97168 33.8278 0.97168C33.8963 0.99718 33.967 0.997181 34.0376 0.972744Z" fill="#2F3033"></path><path d="M24.0249 36.373H21.3687V47.7588H24.0249V36.373Z" fill="#2F3033"></path><path fill-rule="evenodd" clip-rule="evenodd" d="M10.3872 49.8407L10.392 47.1982L24.0249 47.2105L24.0207 49.8545L10.3872 49.8407Z" fill="#2F3033"></path><path d="M13.6967 43.4482L7.72705 49.5029" stroke="#2F3033" stroke-width="2" stroke-miterlimit="10" class="strk"></path><path d="M7.62402 47.7593L13.7998 53.603" stroke="#2F3033" stroke-width="2" stroke-miterlimit="10" class="strk"></path><path d="M30.9746 36.373H28.3184V59.1514H30.9746V36.373Z" fill="#2F3033"></path><path fill-rule="evenodd" clip-rule="evenodd" d="M1.58643 59.1266L1.58961 56.8545L28.3179 56.8789L28.3147 59.1516L1.58643 59.1266Z" fill="#2F3033"></path><path d="M7.09563 52.7319L1.12598 58.7861" stroke="#2F3033" stroke-width="2" stroke-miterlimit="10" class="strk"></path><path d="M1.02295 57.0439L7.19873 62.8877" stroke="#2F3033" stroke-width="2" stroke-miterlimit="10" class="strk"></path><path d="M54.4575 36.7568H51.8013V48.1426H54.4575V36.7568Z" fill="#2F3033"></path><path fill-rule="evenodd" clip-rule="evenodd" d="M65.4385 50.2251L65.4342 47.5811L51.8013 47.5938L51.8055 50.2373L65.4385 50.2251Z" fill="#2F3033"></path><path d="M61.103 44L67.0732 50.0541" stroke="#2F3033" stroke-width="2" stroke-miterlimit="10" class="strk"></path><path d="M67.1758 48.3123L61 54.156" stroke="#2F3033" stroke-width="2" stroke-miterlimit="10" class="strk"></path><path d="M47.5078 36.6997H44.8516V59.477H47.5078V36.6997Z" fill="#2F3033"></path><path d="M74.2785 59.4487L74.2754 56.8206L47.5089 56.8527L47.512 59.4808L74.2785 59.4487Z" fill="#2F3033"></path><path d="M70.5991 53L76.5991 58.5" stroke="#2F3033" stroke-width="2" stroke-miterlimit="10" class="strk"></path><path d="M76.1758 57.3833L70 63.227" stroke="#2F3033" stroke-width="2" stroke-miterlimit="10" class="strk"></path><path fill-rule="evenodd" clip-rule="evenodd" d="M36.6935 68.6588L39.3205 68.5892L38.5953 34.2285L35.9678 34.2992L36.6935 68.6588Z" fill="#2F3033"></path><path d="M43.1549 64L37.2373 70.7888" stroke="#2F3033" stroke-width="2" stroke-miterlimit="10" class="strk"></path><path d="M38.7475 70.9143L33.2339 63.8057" stroke="#2F3033" stroke-width="2" stroke-miterlimit="10" class="strk"></path></svg>