<svg xmlns="http://www.w3.org/2000/svg" width="50" height="50" viewBox="0 0 59 59" fill="none" class="wd"><path d="M4.21429 0C1.88491 0 0 1.88491 0 4.21429V42.1429C0 44.4722 1.88491 46.3571 4.21429 46.3571H26.15L29.5412 58.2304C29.5535 58.2674 29.5741 58.2962 29.5864 58.3292C29.6111 58.3827 29.6276 58.4321 29.6605 58.4814C29.7058 58.5596 29.7593 58.6214 29.8251 58.6872C29.8457 58.7078 29.8539 58.7366 29.8786 58.7531C29.8869 58.7613 29.8951 58.7613 29.8992 58.7695C29.9692 58.823 30.0515 58.8642 30.1338 58.9012C30.1585 58.9136 30.1832 58.93 30.2079 58.9383C30.3108 58.9753 30.4219 58.9959 30.5371 59C30.5453 59 30.5495 59 30.5536 59H54.7857C57.1151 59 59 57.1151 59 54.7857V16.8571C59 14.5278 57.1151 12.6429 54.7857 12.6429H32.85L29.8992 2.29646C29.5123 0.938337 28.2571 0 26.8537 0H4.21429ZM4.21429 2.10714H26.8537C27.3311 2.10714 27.7386 2.42404 27.8661 2.87674L30.6565 12.6429L31.2614 14.75L39.69 44.25H4.21429C3.05371 44.25 2.10714 43.3034 2.10714 42.1429V4.21429C2.10714 3.05371 3.05371 2.10714 4.21429 2.10714ZM5.26786 4.21429C4.68757 4.21429 4.21429 4.68757 4.21429 5.26786V7.375C4.21429 7.95529 4.68757 8.42857 5.26786 8.42857C5.84814 8.42857 6.32143 7.95529 6.32143 7.375V5.26786C6.32143 4.68757 5.84814 4.21429 5.26786 4.21429ZM10.5357 4.21429C9.95543 4.21429 9.48214 4.68757 9.48214 5.26786V7.375C9.48214 7.95529 9.95543 8.42857 10.5357 8.42857C11.116 8.42857 11.5893 7.95529 11.5893 7.375V5.26786C11.5893 4.68757 11.116 4.21429 10.5357 4.21429ZM15.8036 4.21429C15.2233 4.21429 14.75 4.68757 14.75 5.26786V7.375C14.75 7.95529 15.2233 8.42857 15.8036 8.42857C16.3839 8.42857 16.8571 7.95529 16.8571 7.375V5.26786C16.8571 4.68757 16.3839 4.21429 15.8036 4.21429ZM21.0714 4.21429C20.4911 4.21429 20.0179 4.68757 20.0179 5.26786V7.375C20.0179 7.95529 20.4911 8.42857 21.0714 8.42857C21.6517 8.42857 22.125 7.95529 22.125 7.375V5.26786C22.125 4.68757 21.6517 4.21429 21.0714 4.21429ZM26.3393 4.21429C25.759 4.21429 25.2857 4.68757 25.2857 5.26786V7.375C25.2857 7.95529 25.759 8.42857 26.3393 8.42857C26.9196 8.42857 27.3929 7.95529 27.3929 7.375V5.26786C27.3929 4.68757 26.9196 4.21429 26.3393 4.21429ZM18.3223 14.7171C17.8696 14.7171 17.4662 15.0093 17.3222 15.4373L11.6346 32.2944C11.4452 32.8418 11.7416 33.4427 12.293 33.6279C12.8445 33.8172 13.4413 33.5167 13.6306 32.9653L15.5278 27.327C15.5813 27.3394 15.6307 27.3599 15.6883 27.3599H20.9562C21.0097 27.3599 21.055 27.3394 21.1085 27.327L23.0139 32.9653C23.1621 33.4056 23.5695 33.6814 24.0058 33.6814C24.121 33.6814 24.2321 33.6649 24.3474 33.6279C24.8947 33.4427 25.1911 32.8418 25.0059 32.2944L19.3182 15.4373C19.1742 15.0093 18.7709 14.7171 18.3223 14.7171ZM33.4632 14.75H54.7857C55.9463 14.75 56.8929 15.6966 56.8929 16.8571V54.7857C56.8929 55.9463 55.9463 56.8929 54.7857 56.8929H32.8048L35.8214 53.2712V53.7321C35.8214 54.3124 36.2947 54.7857 36.875 54.7857C37.4553 54.7857 37.9286 54.3124 37.9286 53.7321V51.625C37.9286 51.3904 37.838 51.1805 37.7063 51.0077L41.8959 45.9785C41.9042 45.9703 41.9042 45.9621 41.9124 45.9497C41.9165 45.9456 41.9247 45.9415 41.9288 45.9332C41.9577 45.9003 41.9577 45.8592 41.9782 45.8262C42.0317 45.7357 42.0811 45.6493 42.1058 45.5505C42.1182 45.4929 42.114 45.4394 42.1223 45.3818C42.1264 45.283 42.1223 45.1925 42.1058 45.0937C42.0976 45.069 42.1058 45.0443 42.0976 45.0196L40.76 40.332C41.8424 39.7065 42.8425 38.9574 43.7397 38.1261C46.0032 40.4431 48.9581 42.1099 51.6085 42.1099C52.1929 42.1099 52.6621 41.6408 52.6621 41.0564C52.6621 40.4761 52.1929 40.0028 51.6085 40.0028C49.5096 40.0028 47.0568 38.5624 45.1719 36.6116C47.2173 34.1629 48.4478 31.2326 48.4478 28.4135V27.3599H51.6085C52.1929 27.3599 52.6621 26.8908 52.6621 26.3064C52.6621 25.7261 52.1929 25.2528 51.6085 25.2528H44.2335V23.1456C44.2335 22.5654 43.7644 22.0921 43.18 22.0921C42.5997 22.0921 42.1264 22.5654 42.1264 23.1456V25.2528H38.9657C38.3854 25.2528 37.9121 25.7261 37.9121 26.3064C37.9121 26.8908 38.3854 27.3599 38.9657 27.3599H46.3407V28.4135C46.3407 30.7676 45.3077 33.0435 43.7932 34.9407C42.7808 33.492 42.1264 31.9323 42.1264 30.5206C42.1264 29.9404 41.6572 29.4671 41.0728 29.4671C40.4925 29.4671 40.0193 29.9404 40.0193 30.5206C40.0193 32.4879 40.937 34.6197 42.3527 36.517C41.6613 37.1713 40.9164 37.7393 40.1592 38.2249L33.4632 14.75ZM18.3223 19.0672L20.4088 25.2528H16.2316L18.3223 19.0672ZM28.3435 46.3571H38.8381L31.0145 55.7446L28.3435 46.3571ZM42.1429 50.5714C41.5626 50.5714 41.0893 51.0447 41.0893 51.625V53.7321C41.0893 54.3124 41.5626 54.7857 42.1429 54.7857C42.7231 54.7857 43.1964 54.3124 43.1964 53.7321V51.625C43.1964 51.0447 42.7231 50.5714 42.1429 50.5714ZM47.4107 50.5714C46.8304 50.5714 46.3571 51.0447 46.3571 51.625V53.7321C46.3571 54.3124 46.8304 54.7857 47.4107 54.7857C47.991 54.7857 48.4643 54.3124 48.4643 53.7321V51.625C48.4643 51.0447 47.991 50.5714 47.4107 50.5714ZM52.6786 50.5714C52.0983 50.5714 51.625 51.0447 51.625 51.625V53.7321C51.625 54.3124 52.0983 54.7857 52.6786 54.7857C53.2589 54.7857 53.7321 54.3124 53.7321 53.7321V51.625C53.7321 51.0447 53.2589 50.5714 52.6786 50.5714Z" fill="#2F3033"></path></svg>