<svg xmlns="http://www.w3.org/2000/svg" width="55" height="55" viewBox="0 0 126 52" fill="none" class="wd"><path fill-rule="evenodd" clip-rule="evenodd" d="M65.13 77.392C51.505 77.44 38.423 74.838 25.944 69.332C16.842 65.316 8.60799 59.952 1.20799 53.305C1.04899 53.162 0.900986 52.997 0.787986 52.817C0.529986 52.407 0.474989 51.962 0.760989 51.549C1.06199 51.117 1.51099 51.019 2.00799 51.137C2.38099 51.226 2.69799 51.436 3.02599 51.622C12.367 56.967 22.257 60.972 32.644 63.768C37.992 65.207 43.413 66.293 48.899 67.04C56.006 68.007 63.15 68.397 70.316 68.107C85.509 67.492 100.129 64.241 114.164 58.385C114.926 58.067 115.677 57.911 116.444 58.32C117.438 58.848 117.699 59.975 117.044 60.889C116.811 61.214 116.505 61.462 116.183 61.697C109.595 66.486 102.323 69.902 94.62 72.449C88.945 74.325 83.143 75.651 77.223 76.476C73.209 77.036 69.179 77.332 65.13 77.392Z" fill="#2F3033"></path><path fill-rule="evenodd" clip-rule="evenodd" d="M66.2787 10.345C65.5437 13.42 64.8117 16.483 64.0787 19.545C62.6437 25.531 61.2097 31.518 59.7747 37.504C59.7537 37.591 59.7327 37.678 59.7077 37.764C59.2577 39.329 58.9057 39.647 57.3027 39.691C55.9017 39.729 54.4977 39.691 53.0947 39.668C52.2967 39.655 51.7377 39.258 51.4297 38.519C50.7867 36.974 50.3897 35.351 49.9037 33.756C46.9117 23.941 43.9317 14.122 40.9527 4.30302C40.8387 3.92602 40.7387 3.54002 40.6867 3.15102C40.5877 2.40302 40.9577 1.95602 41.6987 1.95102C43.2457 1.93902 44.7927 1.95802 46.3397 1.96402C47.1927 1.96702 47.7687 2.37302 48.0747 3.16402C48.6267 4.59202 48.9077 6.09602 49.2847 7.57202C51.3457 15.639 53.3887 23.71 55.4387 31.78C55.4557 31.845 55.4757 31.909 55.5847 31.988C55.7487 31.32 55.9187 30.653 56.0767 29.983C58.1007 21.388 60.1237 12.792 62.1477 4.19702C62.5877 2.32402 63.0547 1.94902 64.9607 1.94502C66.0937 1.94202 67.2277 1.93202 68.3597 1.96002C69.6947 1.99402 70.2297 2.42303 70.5517 3.73302C71.0027 5.56302 71.4227 7.40002 71.8557 9.23402C73.6507 16.833 75.4457 24.43 77.2417 32.028C77.2637 32.124 77.2987 32.217 77.4227 32.307C77.7967 30.859 78.1717 29.411 78.5457 27.963C80.5907 20.059 82.6317 12.153 84.6817 4.25002C85.1937 2.27602 85.6337 1.94402 87.6407 1.94302C88.7917 1.94302 89.9437 1.93602 91.0947 1.94502C92.0117 1.95302 92.3227 2.29502 92.2507 3.21903C92.1847 4.08903 91.8437 4.89002 91.5877 5.71102C88.2907 16.295 84.9847 26.877 81.6817 37.459C81.0557 39.463 80.6627 39.753 78.5667 39.752C77.5237 39.752 76.4807 39.762 75.4367 39.749C73.8687 39.729 73.3227 39.287 72.9567 37.76C72.0107 33.816 71.0687 29.871 70.1217 25.927C68.9017 20.849 67.6787 15.772 66.4577 10.695C66.4277 10.573 66.4227 10.443 66.2787 10.345Z" fill="#2F3033"></path><path fill-rule="evenodd" clip-rule="evenodd" d="M109.673 0.811035C112.7 0.870035 115.504 1.34503 118.222 2.30103C118.475 2.39003 118.72 2.50303 118.969 2.60503C120.547 3.24703 121.469 4.30704 121.262 6.12304C121.207 6.60304 121.272 7.09604 121.231 7.57804C121.142 8.60704 120.641 8.95903 119.662 8.63003C118.797 8.33903 117.974 7.91904 117.107 7.63204C113.767 6.53004 110.363 6.26103 106.901 6.94703C106.353 7.05503 105.837 7.26403 105.324 7.48503C102.115 8.86603 102.017 13.397 104.697 15.085C106.034 15.927 107.475 16.491 108.959 16.986C111.561 17.854 114.23 18.526 116.771 19.576C119.689 20.783 121.969 22.673 122.902 25.807C124.275 30.421 122.751 35.456 117.962 38.411C115.799 39.745 113.399 40.428 110.897 40.702C106.511 41.183 102.264 40.51 98.1409 38.984C97.5509 38.766 96.9988 38.465 96.4648 38.13C95.6778 37.638 95.3109 36.921 95.2959 36.013C95.2849 35.276 95.2779 34.537 95.2979 33.801C95.3269 32.69 95.8558 32.283 96.9108 32.622C97.7628 32.896 98.5759 33.286 99.4189 33.589C102.994 34.874 106.672 35.349 110.449 34.886C111.906 34.707 113.281 34.265 114.491 33.378C116.849 31.649 117.112 27.529 114.104 25.814C112.655 24.988 111.082 24.505 109.511 23.998C107.207 23.255 104.847 22.683 102.614 21.729C99.3218 20.323 96.9558 18.01 96.0678 14.489C95.0188 10.324 96.2759 6.82003 99.5589 4.07603C101.958 2.07103 104.81 1.17404 107.884 0.907036C108.527 0.849036 109.176 0.835035 109.673 0.811035Z" fill="#2F3033"></path><path fill-rule="evenodd" clip-rule="evenodd" d="M119.242 48.5699C121.963 48.5679 124.179 48.7409 126.338 49.3659C128.228 49.9139 128.606 50.3769 128.649 52.3279C128.724 55.7809 127.862 59.0539 126.629 62.2379C125.372 65.4879 123.642 68.4499 121.123 70.9019C120.738 71.2769 120.361 71.6719 119.89 71.9429C119.489 72.1739 119.044 72.3519 118.636 72.0139C118.229 71.6759 118.382 71.2279 118.545 70.8189C119.636 68.0869 120.716 65.3489 121.567 62.5289C122.035 60.9819 122.443 59.4209 122.635 57.8089C122.695 57.3059 122.703 56.8039 122.677 56.3009C122.619 55.1889 122.06 54.4659 120.993 54.1189C119.835 53.7409 118.64 53.6159 117.436 53.5759C113.759 53.4529 110.114 53.8439 106.471 54.2739C106.151 54.3119 105.826 54.3519 105.504 54.3449C104.745 54.3279 104.458 53.7979 104.828 53.1299C105.036 52.7549 105.367 52.5109 105.713 52.2779C108.277 50.5559 111.136 49.5939 114.148 49.0439C115.992 48.7089 117.853 48.5509 119.242 48.5699Z" fill="#2F3033"></path><path fill-rule="evenodd" clip-rule="evenodd" d="M38.4461 35.3749C37.7971 34.0939 37.1341 32.8119 36.8911 31.3779C36.6751 30.1049 36.5861 28.8139 36.5811 27.5239C36.5651 23.5309 36.5761 19.5379 36.5751 15.5449C36.5751 14.4659 36.5751 13.3879 36.4551 12.3119C36.1941 9.95989 35.5951 7.7249 34.2231 5.7549C32.5091 3.2939 30.0291 2.0419 27.1861 1.4459C22.9041 0.547895 18.6491 0.759897 14.4361 1.9279C12.7541 2.3939 11.1131 2.9599 9.57606 3.7989C8.92806 4.1529 8.42307 4.6219 8.40707 5.4179C8.38607 6.4249 8.36206 7.4329 8.40306 8.4389C8.43606 9.2459 8.89906 9.54589 9.68106 9.36689C10.4191 9.19789 11.1031 8.8749 11.8071 8.6099C15.5671 7.1919 19.4021 6.3509 23.4601 6.9299C26.8141 7.4089 28.6211 8.9829 29.2941 12.2029C29.7171 14.2279 29.5761 16.2859 29.6021 18.3329C29.6061 18.6829 29.4141 18.5859 29.2141 18.5419C27.4081 18.1389 25.5941 17.7779 23.7531 17.5729C20.8411 17.2479 17.9371 17.1939 15.0781 17.9579C11.6561 18.8729 8.87806 20.6919 7.15606 23.8749C5.84606 26.2949 5.62306 28.9169 6.02906 31.5809C6.62006 35.4659 8.66806 38.3599 12.3851 39.7499C16.8341 41.4139 21.2131 40.9259 25.3941 38.7099C27.1951 37.7559 28.6791 36.3979 30.0631 34.8149C30.2801 35.2459 30.4551 35.5969 30.6331 35.9459C31.2151 37.0859 31.8711 38.1749 32.7431 39.1229C33.5911 40.0449 34.3551 40.1469 35.4121 39.4579C36.2251 38.9279 37.0331 38.3919 37.8341 37.8449C38.8791 37.1329 39.0221 36.5119 38.4461 35.3749ZM29.4031 28.2569C28.9651 30.6429 27.5391 32.3189 25.5231 33.4969C23.1541 34.8809 20.5571 35.3749 17.8421 34.9729C15.3621 34.6049 13.8081 32.9789 13.4441 30.4779C13.1571 28.5049 13.2871 26.5919 14.5941 24.9469C15.7361 23.5089 17.3321 22.9099 19.0731 22.6159C20.0671 22.4479 21.0741 22.4169 21.5981 22.4119C24.4621 22.4469 26.8081 22.7589 29.1351 23.2509C29.5721 23.3429 29.6941 23.5159 29.6861 23.9589C29.6631 25.3969 29.6651 26.8329 29.4031 28.2569Z" fill="#2F3033"></path></svg>