<svg xmlns="http://www.w3.org/2000/svg" width="50" height="50" viewBox="0 0 70 70" fill="none" class="wd"><path d="M35 0C23.9211 0 14.0302 5.18117 7.61382 13.2429C7.55253 13.3089 7.48182 13.356 7.43467 13.4314C7.42053 13.455 7.41581 13.488 7.40167 13.5116C2.77209 19.4471 0 26.9053 0 35C0 43.0994 2.77209 50.5624 7.4111 56.4978C7.42524 56.5214 7.42053 56.545 7.43939 56.5686C7.50539 56.6723 7.58553 56.7571 7.67511 56.8373C14.0962 64.8518 23.9541 70 35 70C46.1119 70 56.0264 64.7906 62.4428 56.6864C62.4805 56.644 62.5276 56.611 62.5559 56.5638C62.57 56.5497 62.57 56.5308 62.5748 56.512C67.2232 50.5718 70 43.1088 70 35C70 26.8959 67.2232 19.4329 62.5842 13.4927C62.57 13.4739 62.5748 13.455 62.5606 13.4362C62.5276 13.3843 62.471 13.3513 62.4333 13.3041C56.017 5.20474 46.1072 0 35 0ZM33.7931 2.50808V19.2915C29.1871 19.2113 24.7555 18.6692 20.7247 17.7074C23.5722 9.06587 28.4281 3.27182 33.7931 2.50808ZM36.2069 2.50808C41.5672 3.27182 46.4278 9.06587 49.2753 17.7074C45.2445 18.6692 40.8129 19.2113 36.2069 19.2915V2.50808ZM26.4433 3.56412C23.096 6.51536 20.2815 11.1732 18.3675 17.0804C15.3785 16.2082 12.6488 15.1051 10.3011 13.7803C14.4922 8.91501 20.0788 5.29432 26.4433 3.56412ZM43.552 3.56412C49.9165 5.29432 55.5078 8.91501 59.6989 13.7803C57.3512 15.1051 54.6215 16.2082 51.6325 17.0804C49.7138 11.1732 46.8992 6.51536 43.552 3.56412ZM8.77829 15.6755C11.3618 17.1794 14.3696 18.424 17.6886 19.3905C17.1936 21.2197 16.7787 23.1385 16.4581 25.1562C16.3497 25.8116 16.7976 26.4291 17.4576 26.5329C17.5236 26.547 17.5849 26.5517 17.6461 26.5517C18.2307 26.5517 18.7446 26.1274 18.8389 25.5334C19.1453 23.6052 19.5508 21.7666 20.0269 20.0175C24.2841 21.0453 28.9514 21.6251 33.7931 21.7053V25.3448C33.7931 26.0096 34.3306 26.5517 35 26.5517C35.6647 26.5517 36.2069 26.0096 36.2069 25.3448V21.7053C41.0439 21.6251 45.7159 21.0453 49.9683 20.0175C50.4445 21.7666 50.8547 23.6005 51.1611 25.5334C51.2648 26.1887 51.8824 26.646 52.5424 26.5329C53.2024 26.4291 53.6503 25.8116 53.5419 25.1562C53.2213 23.1385 52.8017 21.2197 52.3114 19.3905C55.6257 18.4287 58.6382 17.1794 61.217 15.6802C65.2196 21.0877 67.5862 27.7728 67.5862 35C67.5862 42.2272 65.2148 48.9123 61.217 54.3245C58.6382 52.8206 55.621 51.5713 52.302 50.6048C52.698 49.1527 53.0469 47.6488 53.3345 46.0742C53.457 45.4189 53.0186 44.7919 52.3633 44.674C51.708 44.5562 51.081 44.9899 50.9584 45.6452C50.6849 47.1538 50.3549 48.5964 49.9778 49.9825C45.7206 48.9547 41.0486 48.3749 36.2069 48.2947V45.8621C36.2069 45.1973 35.6695 44.6552 35 44.6552C34.3306 44.6552 33.7931 45.1973 33.7931 45.8621V48.2947C28.9514 48.3749 24.2794 48.9547 20.0222 49.9825C19.6451 48.5964 19.3151 47.1538 19.0416 45.6452C18.919 44.9899 18.292 44.5609 17.6367 44.674C16.9814 44.7919 16.5477 45.4236 16.6655 46.0789C16.9531 47.6488 17.302 49.1575 17.698 50.6095C14.3743 51.5713 11.3618 52.8206 8.77829 54.3245C4.78044 48.9123 2.41379 42.2272 2.41379 35C2.41379 27.7728 4.78516 21.0877 8.77829 15.6755ZM22.799 27.7633C22.3323 27.8152 21.9174 28.1405 21.776 28.6214L19.1831 37.2582L16.8211 30.955C16.642 30.4836 16.1941 30.1724 15.6897 30.1724C15.1852 30.1724 14.7373 30.4836 14.5582 30.955L12.1963 37.2582L9.60331 28.6214C9.41002 27.9802 8.74057 27.6219 8.09941 27.8105C7.46296 28.0038 7.10466 28.6732 7.29324 29.3097L10.9139 41.3786C11.0601 41.8784 11.5079 42.2225 12.0312 42.2414C12.5687 42.2838 13.0213 41.9444 13.2004 41.4588L15.6897 34.8161L18.1789 41.4588C18.358 41.9302 18.8106 42.2414 19.3103 42.2414H19.3481C19.8714 42.2225 20.3192 41.8784 20.4654 41.3786L24.0861 29.3097C24.2746 28.6732 23.9164 28.0038 23.2752 27.8105C23.1149 27.7633 22.9546 27.7445 22.799 27.7633ZM42.1094 27.7633C41.6426 27.8152 41.2278 28.1405 41.0863 28.6214L38.4934 37.2582L36.1315 30.955C35.9523 30.4836 35.5044 30.1724 35 30.1724C34.4956 30.1724 34.0477 30.4836 33.8685 30.955L31.5066 37.2582L28.9137 28.6214C28.7204 27.9802 28.0509 27.6219 27.4145 27.8105C26.7733 28.0038 26.415 28.6732 26.6036 29.3097L30.2243 41.3786C30.3704 41.8784 30.8183 42.2225 31.3416 42.2414C31.8602 42.2838 32.3269 41.9444 32.5108 41.4588L35 34.8161L37.4892 41.4588C37.6684 41.9302 38.121 42.2414 38.6207 42.2414H38.6584C39.1817 42.2225 39.6296 41.8784 39.7757 41.3786L43.3964 29.3097C43.585 28.6732 43.2267 28.0038 42.5855 27.8105C42.4252 27.7633 42.265 27.7445 42.1094 27.7633ZM61.4197 27.7633C60.953 27.8152 60.5381 28.1405 60.3967 28.6214L57.8037 37.2582L55.4418 30.955C55.2627 30.4836 54.8148 30.1724 54.3103 30.1724C53.8059 30.1724 53.358 30.4836 53.1789 30.955L50.8169 37.2582L48.224 28.6214C48.0307 27.9802 47.3613 27.6219 46.7248 27.8105C46.0836 28.0038 45.7253 28.6732 45.9139 29.3097L49.5346 41.3786C49.6808 41.8784 50.1286 42.2225 50.6519 42.2414C51.1988 42.2838 51.642 41.9444 51.8211 41.4588L54.3103 34.8161L56.7996 41.4588C56.9787 41.9302 57.4313 42.2414 57.931 42.2414H57.9688C58.4921 42.2225 58.9399 41.8784 59.0861 41.3786L62.7068 29.3097C62.8953 28.6732 62.537 28.0038 61.8959 27.8105C61.7356 27.7633 61.5753 27.7445 61.4197 27.7633ZM33.7931 50.7085V67.4919C28.3998 66.7423 23.5533 61.0096 20.7058 52.2926C24.7414 51.3308 29.1824 50.7887 33.7931 50.7085ZM36.2069 50.7085C40.8176 50.7887 45.2586 51.3355 49.2942 52.2973C46.4467 61.0096 41.6002 66.747 36.2069 67.4919V50.7085ZM18.391 52.9149C20.3192 58.8173 23.1526 63.4988 26.514 66.4547C20.1212 64.7293 14.5063 61.1039 10.3011 56.2197C12.6536 54.8902 15.3926 53.7823 18.391 52.9149ZM51.609 52.9149C54.6074 53.7823 57.3464 54.8902 59.6989 56.2197C55.4937 61.1039 49.8788 64.7293 43.486 66.4547C46.8427 63.4988 49.6808 58.8173 51.609 52.9149Z" fill="#2F3033"></path></svg>